<mxfile host="Electron" agent="Mozilla/5.0 (Windows NT 10.0; Win64; x64) AppleWebKit/537.36 (KHTML, like Gecko) draw.io/24.7.17 Chrome/128.0.6613.36 Electron/32.0.1 Safari/537.36" version="24.7.17">
  <diagram id="C5RBs43oDa-KdzZeNtuy" name="Page-1">
    <mxGraphModel dx="3350" dy="2461" grid="1" gridSize="10" guides="1" tooltips="1" connect="1" arrows="1" fold="1" page="1" pageScale="1" pageWidth="827" pageHeight="1169" math="0" shadow="0">
      <root>
        <mxCell id="WIyWlLk6GJQsqaUBKTNV-0" />
        <mxCell id="WIyWlLk6GJQsqaUBKTNV-1" parent="WIyWlLk6GJQsqaUBKTNV-0" />
        <mxCell id="nbl_aplQU6VVSkMg5tAf-25" style="rounded=0;orthogonalLoop=1;jettySize=auto;html=1;endArrow=diamondThin;endFill=1;entryX=0.991;entryY=0.153;entryDx=0;entryDy=0;exitX=0;exitY=0.5;exitDx=0;exitDy=0;entryPerimeter=0;startArrow=none;startFill=0;" parent="WIyWlLk6GJQsqaUBKTNV-1" source="nbl_aplQU6VVSkMg5tAf-87" target="nbl_aplQU6VVSkMg5tAf-55" edge="1">
          <mxGeometry relative="1" as="geometry">
            <mxPoint x="20" y="170" as="targetPoint" />
          </mxGeometry>
        </mxCell>
        <mxCell id="nbl_aplQU6VVSkMg5tAf-26" value="1" style="edgeLabel;html=1;align=center;verticalAlign=middle;resizable=0;points=[];" parent="nbl_aplQU6VVSkMg5tAf-25" vertex="1" connectable="0">
          <mxGeometry x="0.6733" relative="1" as="geometry">
            <mxPoint x="-21" y="-15" as="offset" />
          </mxGeometry>
        </mxCell>
        <mxCell id="nbl_aplQU6VVSkMg5tAf-27" value="1" style="edgeLabel;html=1;align=center;verticalAlign=middle;resizable=0;points=[];" parent="nbl_aplQU6VVSkMg5tAf-25" vertex="1" connectable="0">
          <mxGeometry x="-0.7524" y="-1" relative="1" as="geometry">
            <mxPoint x="21" y="-9" as="offset" />
          </mxGeometry>
        </mxCell>
        <mxCell id="nbl_aplQU6VVSkMg5tAf-35" value="Имеет" style="edgeLabel;html=1;align=center;verticalAlign=middle;resizable=0;points=[];" parent="nbl_aplQU6VVSkMg5tAf-25" vertex="1" connectable="0">
          <mxGeometry x="0.2743" y="-3" relative="1" as="geometry">
            <mxPoint x="38" y="-20" as="offset" />
          </mxGeometry>
        </mxCell>
        <mxCell id="nbl_aplQU6VVSkMg5tAf-28" style="edgeStyle=orthogonalEdgeStyle;rounded=0;orthogonalLoop=1;jettySize=auto;html=1;exitX=0;exitY=0.75;exitDx=0;exitDy=0;entryX=0.5;entryY=0;entryDx=0;entryDy=0;endArrow=none;endFill=0;" parent="WIyWlLk6GJQsqaUBKTNV-1" source="nbl_aplQU6VVSkMg5tAf-127" target="nbl_aplQU6VVSkMg5tAf-7" edge="1">
          <mxGeometry relative="1" as="geometry">
            <mxPoint x="160" y="240" as="targetPoint" />
          </mxGeometry>
        </mxCell>
        <mxCell id="nbl_aplQU6VVSkMg5tAf-58" value="Просматривает" style="edgeLabel;html=1;align=center;verticalAlign=middle;resizable=0;points=[];" parent="nbl_aplQU6VVSkMg5tAf-28" vertex="1" connectable="0">
          <mxGeometry x="-0.1192" relative="1" as="geometry">
            <mxPoint x="20" y="-144" as="offset" />
          </mxGeometry>
        </mxCell>
        <mxCell id="nbl_aplQU6VVSkMg5tAf-59" value="0.*" style="edgeLabel;html=1;align=center;verticalAlign=middle;resizable=0;points=[];" parent="nbl_aplQU6VVSkMg5tAf-28" vertex="1" connectable="0">
          <mxGeometry x="-0.8453" y="-2" relative="1" as="geometry">
            <mxPoint x="30" y="-12" as="offset" />
          </mxGeometry>
        </mxCell>
        <mxCell id="nbl_aplQU6VVSkMg5tAf-60" value="0..*" style="edgeLabel;html=1;align=center;verticalAlign=middle;resizable=0;points=[];" parent="nbl_aplQU6VVSkMg5tAf-28" vertex="1" connectable="0">
          <mxGeometry x="0.8345" y="1" relative="1" as="geometry">
            <mxPoint x="9" y="13" as="offset" />
          </mxGeometry>
        </mxCell>
        <mxCell id="nbl_aplQU6VVSkMg5tAf-72" style="edgeStyle=orthogonalEdgeStyle;rounded=0;orthogonalLoop=1;jettySize=auto;html=1;exitX=0.5;exitY=0;exitDx=0;exitDy=0;entryX=0;entryY=0.5;entryDx=0;entryDy=0;endArrow=none;endFill=0;" parent="WIyWlLk6GJQsqaUBKTNV-1" source="zkfFHV4jXpPFQw0GAbJ--0" target="nbl_aplQU6VVSkMg5tAf-64" edge="1">
          <mxGeometry relative="1" as="geometry" />
        </mxCell>
        <mxCell id="nbl_aplQU6VVSkMg5tAf-76" value="0..*" style="edgeLabel;html=1;align=center;verticalAlign=middle;resizable=0;points=[];" parent="nbl_aplQU6VVSkMg5tAf-72" vertex="1" connectable="0">
          <mxGeometry x="-0.8617" y="3" relative="1" as="geometry">
            <mxPoint x="13" as="offset" />
          </mxGeometry>
        </mxCell>
        <mxCell id="nbl_aplQU6VVSkMg5tAf-77" value="0..*" style="edgeLabel;html=1;align=center;verticalAlign=middle;resizable=0;points=[];" parent="nbl_aplQU6VVSkMg5tAf-72" vertex="1" connectable="0">
          <mxGeometry x="0.8435" y="3" relative="1" as="geometry">
            <mxPoint x="10" y="-8" as="offset" />
          </mxGeometry>
        </mxCell>
        <mxCell id="zkfFHV4jXpPFQw0GAbJ--0" value="Пользователь" style="swimlane;fontStyle=2;align=center;verticalAlign=top;childLayout=stackLayout;horizontal=1;startSize=26;horizontalStack=0;resizeParent=1;resizeLast=0;collapsible=1;marginBottom=0;rounded=0;shadow=0;strokeWidth=1;glass=0;" parent="WIyWlLk6GJQsqaUBKTNV-1" vertex="1">
          <mxGeometry x="210" y="92" width="160" height="208" as="geometry">
            <mxRectangle x="230" y="140" width="160" height="26" as="alternateBounds" />
          </mxGeometry>
        </mxCell>
        <mxCell id="zkfFHV4jXpPFQw0GAbJ--18" value="ID: int" style="text;align=left;verticalAlign=top;spacingLeft=4;spacingRight=4;overflow=hidden;rotatable=0;points=[[0,0.5],[1,0.5]];portConstraint=eastwest;" parent="zkfFHV4jXpPFQw0GAbJ--0" vertex="1">
          <mxGeometry y="26" width="160" height="30" as="geometry" />
        </mxCell>
        <mxCell id="nbl_aplQU6VVSkMg5tAf-87" value="ID_профиля: int" style="text;align=left;verticalAlign=top;spacingLeft=4;spacingRight=4;overflow=hidden;rotatable=0;points=[[0,0.5],[1,0.5]];portConstraint=eastwest;" parent="zkfFHV4jXpPFQw0GAbJ--0" vertex="1">
          <mxGeometry y="56" width="160" height="30" as="geometry" />
        </mxCell>
        <mxCell id="nbl_aplQU6VVSkMg5tAf-88" value="Email: string" style="text;align=left;verticalAlign=top;spacingLeft=4;spacingRight=4;overflow=hidden;rotatable=0;points=[[0,0.5],[1,0.5]];portConstraint=eastwest;" parent="zkfFHV4jXpPFQw0GAbJ--0" vertex="1">
          <mxGeometry y="86" width="160" height="30" as="geometry" />
        </mxCell>
        <mxCell id="nbl_aplQU6VVSkMg5tAf-49" value="Пароль: string" style="text;align=left;verticalAlign=top;spacingLeft=4;spacingRight=4;overflow=hidden;rotatable=0;points=[[0,0.5],[1,0.5]];portConstraint=eastwest;" parent="zkfFHV4jXpPFQw0GAbJ--0" vertex="1">
          <mxGeometry y="116" width="160" height="30" as="geometry" />
        </mxCell>
        <mxCell id="zkfFHV4jXpPFQw0GAbJ--7" value="ID_роли: Роль" style="text;align=left;verticalAlign=top;spacingLeft=4;spacingRight=4;overflow=hidden;rotatable=0;points=[[0,0.5],[1,0.5]];portConstraint=eastwest;" parent="zkfFHV4jXpPFQw0GAbJ--0" vertex="1">
          <mxGeometry y="146" width="160" height="30" as="geometry" />
        </mxCell>
        <mxCell id="zkfFHV4jXpPFQw0GAbJ--4" value="" style="line;html=1;strokeWidth=1;align=left;verticalAlign=middle;spacingTop=-1;spacingLeft=3;spacingRight=3;rotatable=0;labelPosition=right;points=[];portConstraint=eastwest;" parent="zkfFHV4jXpPFQw0GAbJ--0" vertex="1">
          <mxGeometry y="176" width="160" height="6" as="geometry" />
        </mxCell>
        <mxCell id="3zSwLXolES_PX4SPe3zD-30" value="&amp;nbsp;" style="text;strokeColor=none;fillColor=none;align=left;verticalAlign=top;spacingLeft=4;spacingRight=4;overflow=hidden;rotatable=0;points=[[0,0.5],[1,0.5]];portConstraint=eastwest;whiteSpace=wrap;html=1;" parent="zkfFHV4jXpPFQw0GAbJ--0" vertex="1">
          <mxGeometry y="182" width="160" height="26" as="geometry" />
        </mxCell>
        <mxCell id="zkfFHV4jXpPFQw0GAbJ--6" value="Администратор&#xa;" style="swimlane;fontStyle=0;align=center;verticalAlign=top;childLayout=stackLayout;horizontal=1;startSize=26;horizontalStack=0;resizeParent=1;resizeLast=0;collapsible=1;marginBottom=0;rounded=0;shadow=0;strokeWidth=1;" parent="WIyWlLk6GJQsqaUBKTNV-1" vertex="1">
          <mxGeometry x="210" y="384" width="160" height="88" as="geometry">
            <mxRectangle x="130" y="380" width="160" height="26" as="alternateBounds" />
          </mxGeometry>
        </mxCell>
        <mxCell id="3zSwLXolES_PX4SPe3zD-27" value="&amp;nbsp;" style="text;strokeColor=none;fillColor=none;align=left;verticalAlign=top;spacingLeft=4;spacingRight=4;overflow=hidden;rotatable=0;points=[[0,0.5],[1,0.5]];portConstraint=eastwest;whiteSpace=wrap;html=1;" parent="zkfFHV4jXpPFQw0GAbJ--6" vertex="1">
          <mxGeometry y="26" width="160" height="26" as="geometry" />
        </mxCell>
        <mxCell id="zkfFHV4jXpPFQw0GAbJ--9" value="" style="line;html=1;strokeWidth=1;align=left;verticalAlign=middle;spacingTop=-1;spacingLeft=3;spacingRight=3;rotatable=0;labelPosition=right;points=[];portConstraint=eastwest;" parent="zkfFHV4jXpPFQw0GAbJ--6" vertex="1">
          <mxGeometry y="52" width="160" height="10" as="geometry" />
        </mxCell>
        <mxCell id="zkfFHV4jXpPFQw0GAbJ--12" value="" style="endArrow=block;endSize=10;endFill=0;shadow=0;strokeWidth=1;rounded=0;elbow=vertical;entryX=0.5;entryY=1;entryDx=0;entryDy=0;" parent="WIyWlLk6GJQsqaUBKTNV-1" source="zkfFHV4jXpPFQw0GAbJ--6" target="zkfFHV4jXpPFQw0GAbJ--0" edge="1">
          <mxGeometry width="160" relative="1" as="geometry">
            <mxPoint x="200" y="203" as="sourcePoint" />
            <mxPoint x="300" y="515" as="targetPoint" />
          </mxGeometry>
        </mxCell>
        <mxCell id="nbl_aplQU6VVSkMg5tAf-71" style="edgeStyle=orthogonalEdgeStyle;rounded=0;orthogonalLoop=1;jettySize=auto;html=1;exitX=0.25;exitY=0;exitDx=0;exitDy=0;entryX=1;entryY=0.5;entryDx=0;entryDy=0;endArrow=none;endFill=0;" parent="WIyWlLk6GJQsqaUBKTNV-1" source="zkfFHV4jXpPFQw0GAbJ--17" target="nbl_aplQU6VVSkMg5tAf-64" edge="1">
          <mxGeometry relative="1" as="geometry" />
        </mxCell>
        <mxCell id="nbl_aplQU6VVSkMg5tAf-73" value="1" style="edgeLabel;html=1;align=center;verticalAlign=middle;resizable=0;points=[];" parent="nbl_aplQU6VVSkMg5tAf-71" vertex="1" connectable="0">
          <mxGeometry x="-0.8507" relative="1" as="geometry">
            <mxPoint x="-5" y="8" as="offset" />
          </mxGeometry>
        </mxCell>
        <mxCell id="nbl_aplQU6VVSkMg5tAf-74" value="0..1" style="edgeLabel;html=1;align=center;verticalAlign=middle;resizable=0;points=[];" parent="nbl_aplQU6VVSkMg5tAf-71" vertex="1" connectable="0">
          <mxGeometry x="0.8418" y="-2" relative="1" as="geometry">
            <mxPoint x="4" y="-9" as="offset" />
          </mxGeometry>
        </mxCell>
        <mxCell id="zkfFHV4jXpPFQw0GAbJ--17" value="Объявление" style="swimlane;fontStyle=0;align=center;verticalAlign=top;childLayout=stackLayout;horizontal=1;startSize=26;horizontalStack=0;resizeParent=1;resizeLast=0;collapsible=1;marginBottom=0;rounded=0;shadow=0;strokeWidth=1;" parent="WIyWlLk6GJQsqaUBKTNV-1" vertex="1">
          <mxGeometry x="510" y="80" width="250" height="286" as="geometry">
            <mxRectangle x="550" y="140" width="160" height="26" as="alternateBounds" />
          </mxGeometry>
        </mxCell>
        <mxCell id="zkfFHV4jXpPFQw0GAbJ--19" value="ID: int" style="text;align=left;verticalAlign=top;spacingLeft=4;spacingRight=4;overflow=hidden;rotatable=0;points=[[0,0.5],[1,0.5]];portConstraint=eastwest;rounded=0;shadow=0;html=0;" parent="zkfFHV4jXpPFQw0GAbJ--17" vertex="1">
          <mxGeometry y="26" width="250" height="30" as="geometry" />
        </mxCell>
        <mxCell id="nbl_aplQU6VVSkMg5tAf-97" value="ID_пользователя (Продавца): int" style="text;align=left;verticalAlign=top;spacingLeft=4;spacingRight=4;overflow=hidden;rotatable=0;points=[[0,0.5],[1,0.5]];portConstraint=eastwest;" parent="zkfFHV4jXpPFQw0GAbJ--17" vertex="1">
          <mxGeometry y="56" width="250" height="26" as="geometry" />
        </mxCell>
        <mxCell id="nbl_aplQU6VVSkMg5tAf-78" value="ID_питомца: int" style="text;align=left;verticalAlign=top;spacingLeft=4;spacingRight=4;overflow=hidden;rotatable=0;points=[[0,0.5],[1,0.5]];portConstraint=eastwest;" parent="zkfFHV4jXpPFQw0GAbJ--17" vertex="1">
          <mxGeometry y="82" width="250" height="26" as="geometry" />
        </mxCell>
        <mxCell id="zkfFHV4jXpPFQw0GAbJ--22" value="Описание: string" style="text;align=left;verticalAlign=top;spacingLeft=4;spacingRight=4;overflow=hidden;rotatable=0;points=[[0,0.5],[1,0.5]];portConstraint=eastwest;rounded=0;shadow=0;html=0;" parent="zkfFHV4jXpPFQw0GAbJ--17" vertex="1">
          <mxGeometry y="108" width="250" height="30" as="geometry" />
        </mxCell>
        <mxCell id="nbl_aplQU6VVSkMg5tAf-150" value="Цена: int" style="text;align=left;verticalAlign=top;spacingLeft=4;spacingRight=4;overflow=hidden;rotatable=0;points=[[0,0.5],[1,0.5]];portConstraint=eastwest;rounded=0;shadow=0;html=0;" parent="zkfFHV4jXpPFQw0GAbJ--17" vertex="1">
          <mxGeometry y="138" width="250" height="30" as="geometry" />
        </mxCell>
        <mxCell id="zkfFHV4jXpPFQw0GAbJ--24" value="Дата_создания: Date" style="text;align=left;verticalAlign=top;spacingLeft=4;spacingRight=4;overflow=hidden;rotatable=0;points=[[0,0.5],[1,0.5]];portConstraint=eastwest;" parent="zkfFHV4jXpPFQw0GAbJ--17" vertex="1">
          <mxGeometry y="168" width="250" height="26" as="geometry" />
        </mxCell>
        <mxCell id="nbl_aplQU6VVSkMg5tAf-90" value="Дата_закрытия: Date?" style="text;align=left;verticalAlign=top;spacingLeft=4;spacingRight=4;overflow=hidden;rotatable=0;points=[[0,0.5],[1,0.5]];portConstraint=eastwest;" parent="zkfFHV4jXpPFQw0GAbJ--17" vertex="1">
          <mxGeometry y="194" width="250" height="26" as="geometry" />
        </mxCell>
        <mxCell id="zkfFHV4jXpPFQw0GAbJ--21" value="Статус: Статус_объявления" style="text;align=left;verticalAlign=top;spacingLeft=4;spacingRight=4;overflow=hidden;rotatable=0;points=[[0,0.5],[1,0.5]];portConstraint=eastwest;rounded=0;shadow=0;html=0;" parent="zkfFHV4jXpPFQw0GAbJ--17" vertex="1">
          <mxGeometry y="220" width="250" height="30" as="geometry" />
        </mxCell>
        <mxCell id="zkfFHV4jXpPFQw0GAbJ--23" value="" style="line;html=1;strokeWidth=1;align=left;verticalAlign=middle;spacingTop=-1;spacingLeft=3;spacingRight=3;rotatable=0;labelPosition=right;points=[];portConstraint=eastwest;" parent="zkfFHV4jXpPFQw0GAbJ--17" vertex="1">
          <mxGeometry y="250" width="250" height="10" as="geometry" />
        </mxCell>
        <mxCell id="3zSwLXolES_PX4SPe3zD-32" value="&amp;nbsp;" style="text;strokeColor=none;fillColor=none;align=left;verticalAlign=top;spacingLeft=4;spacingRight=4;overflow=hidden;rotatable=0;points=[[0,0.5],[1,0.5]];portConstraint=eastwest;whiteSpace=wrap;html=1;" parent="zkfFHV4jXpPFQw0GAbJ--17" vertex="1">
          <mxGeometry y="260" width="250" height="26" as="geometry" />
        </mxCell>
        <mxCell id="zkfFHV4jXpPFQw0GAbJ--26" value="" style="endArrow=none;shadow=0;strokeWidth=1;rounded=0;endFill=0;elbow=horizontal;entryX=0.001;entryY=0.296;entryDx=0;entryDy=0;entryPerimeter=0;" parent="WIyWlLk6GJQsqaUBKTNV-1" target="nbl_aplQU6VVSkMg5tAf-78" edge="1">
          <mxGeometry x="0.5" y="41" relative="1" as="geometry">
            <mxPoint x="370" y="169.49999999999977" as="sourcePoint" />
            <mxPoint x="480" y="170" as="targetPoint" />
            <mxPoint x="-40" y="32" as="offset" />
          </mxGeometry>
        </mxCell>
        <mxCell id="nbl_aplQU6VVSkMg5tAf-20" value="1" style="edgeLabel;html=1;align=center;verticalAlign=middle;resizable=0;points=[];" parent="zkfFHV4jXpPFQw0GAbJ--26" vertex="1" connectable="0">
          <mxGeometry x="-0.4969" y="-1" relative="1" as="geometry">
            <mxPoint x="-25" y="-11" as="offset" />
          </mxGeometry>
        </mxCell>
        <mxCell id="nbl_aplQU6VVSkMg5tAf-21" value="0..*" style="edgeLabel;html=1;align=center;verticalAlign=middle;resizable=0;points=[];" parent="zkfFHV4jXpPFQw0GAbJ--26" vertex="1" connectable="0">
          <mxGeometry x="0.8915" y="3" relative="1" as="geometry">
            <mxPoint x="-13" y="-8" as="offset" />
          </mxGeometry>
        </mxCell>
        <mxCell id="nbl_aplQU6VVSkMg5tAf-34" value="Создаёт" style="edgeLabel;html=1;align=center;verticalAlign=middle;resizable=0;points=[];" parent="zkfFHV4jXpPFQw0GAbJ--26" vertex="1" connectable="0">
          <mxGeometry x="-0.2543" y="2" relative="1" as="geometry">
            <mxPoint x="18" y="-8" as="offset" />
          </mxGeometry>
        </mxCell>
        <mxCell id="nbl_aplQU6VVSkMg5tAf-7" value="Профиль" style="swimlane;fontStyle=0;align=center;verticalAlign=top;childLayout=stackLayout;horizontal=1;startSize=26;horizontalStack=0;resizeParent=1;resizeLast=0;collapsible=1;marginBottom=0;rounded=0;shadow=0;strokeWidth=1;" parent="WIyWlLk6GJQsqaUBKTNV-1" vertex="1">
          <mxGeometry x="-199" y="42" width="160" height="342" as="geometry">
            <mxRectangle x="550" y="140" width="160" height="26" as="alternateBounds" />
          </mxGeometry>
        </mxCell>
        <mxCell id="nbl_aplQU6VVSkMg5tAf-52" value="ID: int" style="text;align=left;verticalAlign=top;spacingLeft=4;spacingRight=4;overflow=hidden;rotatable=0;points=[[0,0.5],[1,0.5]];portConstraint=eastwest;" parent="nbl_aplQU6VVSkMg5tAf-7" vertex="1">
          <mxGeometry y="26" width="160" height="30" as="geometry" />
        </mxCell>
        <mxCell id="nbl_aplQU6VVSkMg5tAf-53" value="Имя: string" style="text;align=left;verticalAlign=top;spacingLeft=4;spacingRight=4;overflow=hidden;rotatable=0;points=[[0,0.5],[1,0.5]];portConstraint=eastwest;" parent="nbl_aplQU6VVSkMg5tAf-7" vertex="1">
          <mxGeometry y="56" width="160" height="30" as="geometry" />
        </mxCell>
        <mxCell id="nbl_aplQU6VVSkMg5tAf-54" value="Фамилия: string?" style="text;align=left;verticalAlign=top;spacingLeft=4;spacingRight=4;overflow=hidden;rotatable=0;points=[[0,0.5],[1,0.5]];portConstraint=eastwest;" parent="nbl_aplQU6VVSkMg5tAf-7" vertex="1">
          <mxGeometry y="86" width="160" height="30" as="geometry" />
        </mxCell>
        <mxCell id="nbl_aplQU6VVSkMg5tAf-55" value="Отчество: string?" style="text;align=left;verticalAlign=top;spacingLeft=4;spacingRight=4;overflow=hidden;rotatable=0;points=[[0,0.5],[1,0.5]];portConstraint=eastwest;" parent="nbl_aplQU6VVSkMg5tAf-7" vertex="1">
          <mxGeometry y="116" width="160" height="30" as="geometry" />
        </mxCell>
        <mxCell id="nbl_aplQU6VVSkMg5tAf-83" value="Возраст: string?" style="text;align=left;verticalAlign=top;spacingLeft=4;spacingRight=4;overflow=hidden;rotatable=0;points=[[0,0.5],[1,0.5]];portConstraint=eastwest;" parent="nbl_aplQU6VVSkMg5tAf-7" vertex="1">
          <mxGeometry y="146" width="160" height="30" as="geometry" />
        </mxCell>
        <mxCell id="nbl_aplQU6VVSkMg5tAf-84" value="Пол: Пол?" style="text;align=left;verticalAlign=top;spacingLeft=4;spacingRight=4;overflow=hidden;rotatable=0;points=[[0,0.5],[1,0.5]];portConstraint=eastwest;" parent="nbl_aplQU6VVSkMg5tAf-7" vertex="1">
          <mxGeometry y="176" width="160" height="30" as="geometry" />
        </mxCell>
        <mxCell id="nbl_aplQU6VVSkMg5tAf-89" value="Дата_регистрации: Date" style="text;align=left;verticalAlign=top;spacingLeft=4;spacingRight=4;overflow=hidden;rotatable=0;points=[[0,0.5],[1,0.5]];portConstraint=eastwest;" parent="nbl_aplQU6VVSkMg5tAf-7" vertex="1">
          <mxGeometry y="206" width="160" height="30" as="geometry" />
        </mxCell>
        <mxCell id="nbl_aplQU6VVSkMg5tAf-82" value="Фото: string?" style="text;align=left;verticalAlign=top;spacingLeft=4;spacingRight=4;overflow=hidden;rotatable=0;points=[[0,0.5],[1,0.5]];portConstraint=eastwest;" parent="nbl_aplQU6VVSkMg5tAf-7" vertex="1">
          <mxGeometry y="236" width="160" height="30" as="geometry" />
        </mxCell>
        <mxCell id="nbl_aplQU6VVSkMg5tAf-102" value="Статус: Статус_профиля" style="text;align=left;verticalAlign=top;spacingLeft=4;spacingRight=4;overflow=hidden;rotatable=0;points=[[0,0.5],[1,0.5]];portConstraint=eastwest;" parent="nbl_aplQU6VVSkMg5tAf-7" vertex="1">
          <mxGeometry y="266" width="160" height="30" as="geometry" />
        </mxCell>
        <mxCell id="nbl_aplQU6VVSkMg5tAf-13" value="" style="line;html=1;strokeWidth=1;align=left;verticalAlign=middle;spacingTop=-1;spacingLeft=3;spacingRight=3;rotatable=0;labelPosition=right;points=[];portConstraint=eastwest;" parent="nbl_aplQU6VVSkMg5tAf-7" vertex="1">
          <mxGeometry y="296" width="160" height="16" as="geometry" />
        </mxCell>
        <mxCell id="3zSwLXolES_PX4SPe3zD-38" value="&amp;nbsp;" style="text;strokeColor=none;fillColor=none;align=left;verticalAlign=top;spacingLeft=4;spacingRight=4;overflow=hidden;rotatable=0;points=[[0,0.5],[1,0.5]];portConstraint=eastwest;whiteSpace=wrap;html=1;" parent="nbl_aplQU6VVSkMg5tAf-7" vertex="1">
          <mxGeometry y="312" width="160" height="26" as="geometry" />
        </mxCell>
        <mxCell id="nbl_aplQU6VVSkMg5tAf-23" value="Питомец" style="swimlane;fontStyle=0;align=center;verticalAlign=top;childLayout=stackLayout;horizontal=1;startSize=26;horizontalStack=0;resizeParent=1;resizeLast=0;collapsible=1;marginBottom=0;rounded=0;shadow=0;strokeWidth=1;" parent="WIyWlLk6GJQsqaUBKTNV-1" vertex="1">
          <mxGeometry x="-199" y="500" width="160" height="278" as="geometry">
            <mxRectangle x="550" y="140" width="160" height="26" as="alternateBounds" />
          </mxGeometry>
        </mxCell>
        <mxCell id="nbl_aplQU6VVSkMg5tAf-79" value="ID: int" style="text;align=left;verticalAlign=top;spacingLeft=4;spacingRight=4;overflow=hidden;rotatable=0;points=[[0,0.5],[1,0.5]];portConstraint=eastwest;rounded=0;shadow=0;html=0;" parent="nbl_aplQU6VVSkMg5tAf-23" vertex="1">
          <mxGeometry y="26" width="160" height="30" as="geometry" />
        </mxCell>
        <mxCell id="nbl_aplQU6VVSkMg5tAf-80" value="Имя: string" style="text;align=left;verticalAlign=top;spacingLeft=4;spacingRight=4;overflow=hidden;rotatable=0;points=[[0,0.5],[1,0.5]];portConstraint=eastwest;rounded=0;shadow=0;html=0;" parent="nbl_aplQU6VVSkMg5tAf-23" vertex="1">
          <mxGeometry y="56" width="160" height="30" as="geometry" />
        </mxCell>
        <mxCell id="nbl_aplQU6VVSkMg5tAf-91" value="Возраст: int" style="text;align=left;verticalAlign=top;spacingLeft=4;spacingRight=4;overflow=hidden;rotatable=0;points=[[0,0.5],[1,0.5]];portConstraint=eastwest;rounded=0;shadow=0;html=0;" parent="nbl_aplQU6VVSkMg5tAf-23" vertex="1">
          <mxGeometry y="86" width="160" height="30" as="geometry" />
        </mxCell>
        <mxCell id="nbl_aplQU6VVSkMg5tAf-92" value="Пол: string" style="text;align=left;verticalAlign=top;spacingLeft=4;spacingRight=4;overflow=hidden;rotatable=0;points=[[0,0.5],[1,0.5]];portConstraint=eastwest;rounded=0;shadow=0;html=0;" parent="nbl_aplQU6VVSkMg5tAf-23" vertex="1">
          <mxGeometry y="116" width="160" height="30" as="geometry" />
        </mxCell>
        <mxCell id="nbl_aplQU6VVSkMg5tAf-93" value="Фото: string" style="text;align=left;verticalAlign=top;spacingLeft=4;spacingRight=4;overflow=hidden;rotatable=0;points=[[0,0.5],[1,0.5]];portConstraint=eastwest;rounded=0;shadow=0;html=0;" parent="nbl_aplQU6VVSkMg5tAf-23" vertex="1">
          <mxGeometry y="146" width="160" height="30" as="geometry" />
        </mxCell>
        <mxCell id="nbl_aplQU6VVSkMg5tAf-95" value="Вид: string" style="text;align=left;verticalAlign=top;spacingLeft=4;spacingRight=4;overflow=hidden;rotatable=0;points=[[0,0.5],[1,0.5]];portConstraint=eastwest;rounded=0;shadow=0;html=0;" parent="nbl_aplQU6VVSkMg5tAf-23" vertex="1">
          <mxGeometry y="176" width="160" height="30" as="geometry" />
        </mxCell>
        <mxCell id="nbl_aplQU6VVSkMg5tAf-96" value="Порода: string" style="text;align=left;verticalAlign=top;spacingLeft=4;spacingRight=4;overflow=hidden;rotatable=0;points=[[0,0.5],[1,0.5]];portConstraint=eastwest;rounded=0;shadow=0;html=0;" parent="nbl_aplQU6VVSkMg5tAf-23" vertex="1">
          <mxGeometry y="206" width="160" height="30" as="geometry" />
        </mxCell>
        <mxCell id="nbl_aplQU6VVSkMg5tAf-24" value="" style="line;html=1;strokeWidth=1;align=left;verticalAlign=middle;spacingTop=-1;spacingLeft=3;spacingRight=3;rotatable=0;labelPosition=right;points=[];portConstraint=eastwest;" parent="nbl_aplQU6VVSkMg5tAf-23" vertex="1">
          <mxGeometry y="236" width="160" height="16" as="geometry" />
        </mxCell>
        <mxCell id="3zSwLXolES_PX4SPe3zD-33" value="&amp;nbsp;" style="text;strokeColor=none;fillColor=none;align=left;verticalAlign=top;spacingLeft=4;spacingRight=4;overflow=hidden;rotatable=0;points=[[0,0.5],[1,0.5]];portConstraint=eastwest;whiteSpace=wrap;html=1;" parent="nbl_aplQU6VVSkMg5tAf-23" vertex="1">
          <mxGeometry y="252" width="160" height="26" as="geometry" />
        </mxCell>
        <mxCell id="nbl_aplQU6VVSkMg5tAf-29" value="" style="endArrow=none;shadow=0;strokeWidth=1;rounded=0;curved=0;endFill=0;edgeStyle=elbowEdgeStyle;elbow=vertical;exitX=1;exitY=0.5;exitDx=0;exitDy=0;" parent="WIyWlLk6GJQsqaUBKTNV-1" source="nbl_aplQU6VVSkMg5tAf-129" edge="1">
          <mxGeometry x="0.5" y="41" relative="1" as="geometry">
            <mxPoint x="320" y="-370" as="sourcePoint" />
            <mxPoint x="600" y="80" as="targetPoint" />
            <mxPoint x="-40" y="32" as="offset" />
            <Array as="points">
              <mxPoint x="460" y="-578" />
            </Array>
          </mxGeometry>
        </mxCell>
        <mxCell id="nbl_aplQU6VVSkMg5tAf-30" value="0..*" style="edgeLabel;html=1;align=center;verticalAlign=middle;resizable=0;points=[];" parent="nbl_aplQU6VVSkMg5tAf-29" vertex="1" connectable="0">
          <mxGeometry x="-0.4969" y="-1" relative="1" as="geometry">
            <mxPoint x="-221" y="-13" as="offset" />
          </mxGeometry>
        </mxCell>
        <mxCell id="nbl_aplQU6VVSkMg5tAf-31" value="0..*" style="edgeLabel;html=1;align=center;verticalAlign=middle;resizable=0;points=[];" parent="nbl_aplQU6VVSkMg5tAf-29" vertex="1" connectable="0">
          <mxGeometry x="0.8915" y="3" relative="1" as="geometry">
            <mxPoint x="7" y="31" as="offset" />
          </mxGeometry>
        </mxCell>
        <mxCell id="nbl_aplQU6VVSkMg5tAf-33" value="Просматривает" style="edgeLabel;html=1;align=center;verticalAlign=middle;resizable=0;points=[];" parent="nbl_aplQU6VVSkMg5tAf-29" vertex="1" connectable="0">
          <mxGeometry x="-0.1401" relative="1" as="geometry">
            <mxPoint x="-110" y="-134" as="offset" />
          </mxGeometry>
        </mxCell>
        <mxCell id="nbl_aplQU6VVSkMg5tAf-36" style="rounded=0;orthogonalLoop=1;jettySize=auto;html=1;endArrow=diamondThin;endFill=1;exitX=0.5;exitY=1;exitDx=0;exitDy=0;entryX=0.5;entryY=0;entryDx=0;entryDy=0;" parent="WIyWlLk6GJQsqaUBKTNV-1" source="nbl_aplQU6VVSkMg5tAf-7" target="nbl_aplQU6VVSkMg5tAf-23" edge="1">
          <mxGeometry relative="1" as="geometry">
            <mxPoint x="-193.11529411764684" y="482" as="sourcePoint" />
            <mxPoint x="-100" y="510" as="targetPoint" />
          </mxGeometry>
        </mxCell>
        <mxCell id="nbl_aplQU6VVSkMg5tAf-44" value="1" style="edgeLabel;html=1;align=center;verticalAlign=middle;resizable=0;points=[];" parent="nbl_aplQU6VVSkMg5tAf-36" vertex="1" connectable="0">
          <mxGeometry x="-0.6684" y="4" relative="1" as="geometry">
            <mxPoint x="-9" y="-7" as="offset" />
          </mxGeometry>
        </mxCell>
        <mxCell id="nbl_aplQU6VVSkMg5tAf-46" value="0..*" style="edgeLabel;html=1;align=center;verticalAlign=middle;resizable=0;points=[];" parent="nbl_aplQU6VVSkMg5tAf-36" vertex="1" connectable="0">
          <mxGeometry x="0.665" y="9" relative="1" as="geometry">
            <mxPoint y="-1" as="offset" />
          </mxGeometry>
        </mxCell>
        <mxCell id="nbl_aplQU6VVSkMg5tAf-94" value="Имеет" style="edgeLabel;html=1;align=center;verticalAlign=middle;resizable=0;points=[];" parent="nbl_aplQU6VVSkMg5tAf-36" vertex="1" connectable="0">
          <mxGeometry x="-0.0908" y="5" relative="1" as="geometry">
            <mxPoint x="14" y="-6" as="offset" />
          </mxGeometry>
        </mxCell>
        <mxCell id="nbl_aplQU6VVSkMg5tAf-61" value="Сделка" style="swimlane;fontStyle=0;align=center;verticalAlign=top;childLayout=stackLayout;horizontal=1;startSize=26;horizontalStack=0;resizeParent=1;resizeLast=0;collapsible=1;marginBottom=0;rounded=0;shadow=0;strokeWidth=1;" parent="WIyWlLk6GJQsqaUBKTNV-1" vertex="1">
          <mxGeometry x="320" y="-266" width="210" height="266" as="geometry">
            <mxRectangle x="550" y="140" width="160" height="26" as="alternateBounds" />
          </mxGeometry>
        </mxCell>
        <mxCell id="nbl_aplQU6VVSkMg5tAf-62" value="ID: int" style="text;align=left;verticalAlign=top;spacingLeft=4;spacingRight=4;overflow=hidden;rotatable=0;points=[[0,0.5],[1,0.5]];portConstraint=eastwest;" parent="nbl_aplQU6VVSkMg5tAf-61" vertex="1">
          <mxGeometry y="26" width="210" height="30" as="geometry" />
        </mxCell>
        <mxCell id="nbl_aplQU6VVSkMg5tAf-63" value="ID_объявления: int" style="text;align=left;verticalAlign=top;spacingLeft=4;spacingRight=4;overflow=hidden;rotatable=0;points=[[0,0.5],[1,0.5]];portConstraint=eastwest;" parent="nbl_aplQU6VVSkMg5tAf-61" vertex="1">
          <mxGeometry y="56" width="210" height="30" as="geometry" />
        </mxCell>
        <mxCell id="nbl_aplQU6VVSkMg5tAf-64" value="ID_пользователя(Продавец): int" style="text;align=left;verticalAlign=top;spacingLeft=4;spacingRight=4;overflow=hidden;rotatable=0;points=[[0,0.5],[1,0.5]];portConstraint=eastwest;" parent="nbl_aplQU6VVSkMg5tAf-61" vertex="1">
          <mxGeometry y="86" width="210" height="30" as="geometry" />
        </mxCell>
        <mxCell id="nbl_aplQU6VVSkMg5tAf-65" value="ID_пользователя(Покупатель): int&#xa;" style="text;align=left;verticalAlign=top;spacingLeft=4;spacingRight=4;overflow=hidden;rotatable=0;points=[[0,0.5],[1,0.5]];portConstraint=eastwest;" parent="nbl_aplQU6VVSkMg5tAf-61" vertex="1">
          <mxGeometry y="116" width="210" height="30" as="geometry" />
        </mxCell>
        <mxCell id="p3t6UOwjwPIQ7AUzh01Z-45" value="Статус: string&#xa;" style="text;align=left;verticalAlign=top;spacingLeft=4;spacingRight=4;overflow=hidden;rotatable=0;points=[[0,0.5],[1,0.5]];portConstraint=eastwest;" parent="nbl_aplQU6VVSkMg5tAf-61" vertex="1">
          <mxGeometry y="146" width="210" height="30" as="geometry" />
        </mxCell>
        <mxCell id="p3t6UOwjwPIQ7AUzh01Z-49" value="Номер_счёта: string" style="text;align=left;verticalAlign=top;spacingLeft=4;spacingRight=4;overflow=hidden;rotatable=0;points=[[0,0.5],[1,0.5]];portConstraint=eastwest;" parent="nbl_aplQU6VVSkMg5tAf-61" vertex="1">
          <mxGeometry y="176" width="210" height="30" as="geometry" />
        </mxCell>
        <mxCell id="p3t6UOwjwPIQ7AUzh01Z-50" value="Банк: string" style="text;align=left;verticalAlign=top;spacingLeft=4;spacingRight=4;overflow=hidden;rotatable=0;points=[[0,0.5],[1,0.5]];portConstraint=eastwest;" parent="nbl_aplQU6VVSkMg5tAf-61" vertex="1">
          <mxGeometry y="206" width="210" height="30" as="geometry" />
        </mxCell>
        <mxCell id="nbl_aplQU6VVSkMg5tAf-66" value="" style="line;html=1;strokeWidth=1;align=left;verticalAlign=middle;spacingTop=-1;spacingLeft=3;spacingRight=3;rotatable=0;labelPosition=right;points=[];portConstraint=eastwest;" parent="nbl_aplQU6VVSkMg5tAf-61" vertex="1">
          <mxGeometry y="236" width="210" height="4" as="geometry" />
        </mxCell>
        <mxCell id="3zSwLXolES_PX4SPe3zD-35" value="&amp;nbsp;" style="text;strokeColor=none;fillColor=none;align=left;verticalAlign=top;spacingLeft=4;spacingRight=4;overflow=hidden;rotatable=0;points=[[0,0.5],[1,0.5]];portConstraint=eastwest;whiteSpace=wrap;html=1;" parent="nbl_aplQU6VVSkMg5tAf-61" vertex="1">
          <mxGeometry y="240" width="210" height="26" as="geometry" />
        </mxCell>
        <mxCell id="nbl_aplQU6VVSkMg5tAf-98" style="edgeStyle=orthogonalEdgeStyle;rounded=0;orthogonalLoop=1;jettySize=auto;html=1;exitX=0;exitY=0.25;exitDx=0;exitDy=0;entryX=1;entryY=0.5;entryDx=0;entryDy=0;endArrow=none;endFill=0;" parent="WIyWlLk6GJQsqaUBKTNV-1" source="zkfFHV4jXpPFQw0GAbJ--6" target="nbl_aplQU6VVSkMg5tAf-89" edge="1">
          <mxGeometry relative="1" as="geometry">
            <mxPoint x="220" y="234" as="sourcePoint" />
            <mxPoint x="-34" y="235" as="targetPoint" />
            <Array as="points">
              <mxPoint y="409" />
              <mxPoint y="293" />
              <mxPoint x="-40" y="293" />
            </Array>
          </mxGeometry>
        </mxCell>
        <mxCell id="nbl_aplQU6VVSkMg5tAf-99" value="Блокировать" style="edgeLabel;html=1;align=center;verticalAlign=middle;resizable=0;points=[];" parent="nbl_aplQU6VVSkMg5tAf-98" vertex="1" connectable="0">
          <mxGeometry x="-0.1192" relative="1" as="geometry">
            <mxPoint x="50" y="-19" as="offset" />
          </mxGeometry>
        </mxCell>
        <mxCell id="nbl_aplQU6VVSkMg5tAf-100" value="1" style="edgeLabel;html=1;align=center;verticalAlign=middle;resizable=0;points=[];" parent="nbl_aplQU6VVSkMg5tAf-98" vertex="1" connectable="0">
          <mxGeometry x="-0.8453" y="-2" relative="1" as="geometry">
            <mxPoint x="5" y="-12" as="offset" />
          </mxGeometry>
        </mxCell>
        <mxCell id="nbl_aplQU6VVSkMg5tAf-101" value="0..1" style="edgeLabel;html=1;align=center;verticalAlign=middle;resizable=0;points=[];" parent="nbl_aplQU6VVSkMg5tAf-98" vertex="1" connectable="0">
          <mxGeometry x="0.8345" y="1" relative="1" as="geometry">
            <mxPoint x="17" y="-14" as="offset" />
          </mxGeometry>
        </mxCell>
        <mxCell id="nbl_aplQU6VVSkMg5tAf-103" style="edgeStyle=orthogonalEdgeStyle;rounded=0;orthogonalLoop=1;jettySize=auto;html=1;exitX=0.889;exitY=0.008;exitDx=0;exitDy=0;entryX=0;entryY=0.5;entryDx=0;entryDy=0;endArrow=none;endFill=0;exitPerimeter=0;" parent="WIyWlLk6GJQsqaUBKTNV-1" source="zkfFHV4jXpPFQw0GAbJ--6" target="zkfFHV4jXpPFQw0GAbJ--24" edge="1">
          <mxGeometry relative="1" as="geometry">
            <mxPoint x="260" y="350" as="sourcePoint" />
            <mxPoint x="-30" y="303" as="targetPoint" />
            <Array as="points">
              <mxPoint x="352" y="360" />
              <mxPoint x="490" y="360" />
              <mxPoint x="490" y="247" />
              <mxPoint x="510" y="247" />
            </Array>
          </mxGeometry>
        </mxCell>
        <mxCell id="nbl_aplQU6VVSkMg5tAf-104" value="Закрытие объявление" style="edgeLabel;html=1;align=center;verticalAlign=middle;resizable=0;points=[];" parent="nbl_aplQU6VVSkMg5tAf-103" vertex="1" connectable="0">
          <mxGeometry x="-0.1192" relative="1" as="geometry">
            <mxPoint x="-57" y="-14" as="offset" />
          </mxGeometry>
        </mxCell>
        <mxCell id="nbl_aplQU6VVSkMg5tAf-105" value="1" style="edgeLabel;html=1;align=center;verticalAlign=middle;resizable=0;points=[];" parent="nbl_aplQU6VVSkMg5tAf-103" vertex="1" connectable="0">
          <mxGeometry x="-0.8453" y="-2" relative="1" as="geometry">
            <mxPoint x="-14" y="8" as="offset" />
          </mxGeometry>
        </mxCell>
        <mxCell id="nbl_aplQU6VVSkMg5tAf-106" value="0..*" style="edgeLabel;html=1;align=center;verticalAlign=middle;resizable=0;points=[];" parent="nbl_aplQU6VVSkMg5tAf-103" vertex="1" connectable="0">
          <mxGeometry x="0.8345" y="1" relative="1" as="geometry">
            <mxPoint x="-8" y="-16" as="offset" />
          </mxGeometry>
        </mxCell>
        <mxCell id="nbl_aplQU6VVSkMg5tAf-107" value="«enum»&lt;div&gt;Роль&lt;/div&gt;" style="swimlane;fontStyle=0;childLayout=stackLayout;horizontal=1;startSize=26;fillColor=none;horizontalStack=0;resizeParent=1;resizeParentMax=0;resizeLast=0;collapsible=1;marginBottom=0;whiteSpace=wrap;html=1;" parent="WIyWlLk6GJQsqaUBKTNV-1" vertex="1">
          <mxGeometry x="30" y="251" width="140" height="78" as="geometry" />
        </mxCell>
        <mxCell id="3zSwLXolES_PX4SPe3zD-4" value="Пользователь" style="text;strokeColor=none;fillColor=none;align=left;verticalAlign=top;spacingLeft=4;spacingRight=4;overflow=hidden;rotatable=0;points=[[0,0.5],[1,0.5]];portConstraint=eastwest;whiteSpace=wrap;html=1;" parent="nbl_aplQU6VVSkMg5tAf-107" vertex="1">
          <mxGeometry y="26" width="140" height="26" as="geometry" />
        </mxCell>
        <mxCell id="nbl_aplQU6VVSkMg5tAf-108" value="Администратор" style="text;strokeColor=none;fillColor=none;align=left;verticalAlign=top;spacingLeft=4;spacingRight=4;overflow=hidden;rotatable=0;points=[[0,0.5],[1,0.5]];portConstraint=eastwest;whiteSpace=wrap;html=1;" parent="nbl_aplQU6VVSkMg5tAf-107" vertex="1">
          <mxGeometry y="52" width="140" height="26" as="geometry" />
        </mxCell>
        <mxCell id="nbl_aplQU6VVSkMg5tAf-112" style="edgeStyle=orthogonalEdgeStyle;rounded=0;orthogonalLoop=1;jettySize=auto;html=1;entryX=1;entryY=0.5;entryDx=0;entryDy=0;endArrow=open;endFill=0;dashed=1;exitX=0;exitY=0.5;exitDx=0;exitDy=0;" parent="WIyWlLk6GJQsqaUBKTNV-1" source="zkfFHV4jXpPFQw0GAbJ--7" target="nbl_aplQU6VVSkMg5tAf-108" edge="1">
          <mxGeometry relative="1" as="geometry" />
        </mxCell>
        <mxCell id="nbl_aplQU6VVSkMg5tAf-127" value="НеавторизованныйПользователь" style="swimlane;fontStyle=0;align=center;verticalAlign=top;childLayout=stackLayout;horizontal=1;startSize=26;horizontalStack=0;resizeParent=1;resizeLast=0;collapsible=1;marginBottom=0;rounded=0;shadow=0;strokeWidth=1;" parent="WIyWlLk6GJQsqaUBKTNV-1" vertex="1">
          <mxGeometry x="-20" y="-650" width="320" height="116" as="geometry">
            <mxRectangle x="230" y="140" width="160" height="26" as="alternateBounds" />
          </mxGeometry>
        </mxCell>
        <mxCell id="3zSwLXolES_PX4SPe3zD-36" value="&amp;nbsp;" style="text;strokeColor=none;fillColor=none;align=left;verticalAlign=top;spacingLeft=4;spacingRight=4;overflow=hidden;rotatable=0;points=[[0,0.5],[1,0.5]];portConstraint=eastwest;whiteSpace=wrap;html=1;" parent="nbl_aplQU6VVSkMg5tAf-127" vertex="1">
          <mxGeometry y="26" width="320" height="26" as="geometry" />
        </mxCell>
        <mxCell id="nbl_aplQU6VVSkMg5tAf-132" value="" style="line;html=1;strokeWidth=1;align=left;verticalAlign=middle;spacingTop=-1;spacingLeft=3;spacingRight=3;rotatable=0;labelPosition=right;points=[];portConstraint=eastwest;" parent="nbl_aplQU6VVSkMg5tAf-127" vertex="1">
          <mxGeometry y="52" width="320" height="6" as="geometry" />
        </mxCell>
        <mxCell id="nbl_aplQU6VVSkMg5tAf-129" value="СоздатьАккаунт(email: string, пароль: string, имя: string)" style="text;align=left;verticalAlign=top;spacingLeft=4;spacingRight=4;overflow=hidden;rotatable=0;points=[[0,0.5],[1,0.5]];portConstraint=eastwest;" parent="nbl_aplQU6VVSkMg5tAf-127" vertex="1">
          <mxGeometry y="58" width="320" height="28" as="geometry" />
        </mxCell>
        <mxCell id="U1j1SWn_2e8lO9P5iG3P-0" value="ВойтиВАккаунт(email: string, пароль: string)" style="text;align=left;verticalAlign=top;spacingLeft=4;spacingRight=4;overflow=hidden;rotatable=0;points=[[0,0.5],[1,0.5]];portConstraint=eastwest;" parent="nbl_aplQU6VVSkMg5tAf-127" vertex="1">
          <mxGeometry y="86" width="320" height="30" as="geometry" />
        </mxCell>
        <mxCell id="nbl_aplQU6VVSkMg5tAf-137" value="" style="endArrow=block;endSize=10;endFill=0;shadow=0;strokeWidth=1;rounded=0;elbow=vertical;exitX=0.25;exitY=0;exitDx=0;exitDy=0;entryX=0.848;entryY=1.003;entryDx=0;entryDy=0;entryPerimeter=0;" parent="WIyWlLk6GJQsqaUBKTNV-1" source="zkfFHV4jXpPFQw0GAbJ--0" target="U1j1SWn_2e8lO9P5iG3P-0" edge="1">
          <mxGeometry width="160" relative="1" as="geometry">
            <mxPoint x="300" y="370" as="sourcePoint" />
            <mxPoint x="250" y="-350" as="targetPoint" />
          </mxGeometry>
        </mxCell>
        <mxCell id="nbl_aplQU6VVSkMg5tAf-139" value="«enum»&lt;div&gt;Статус_объявления&lt;/div&gt;" style="swimlane;fontStyle=0;childLayout=stackLayout;horizontal=1;startSize=26;fillColor=none;horizontalStack=0;resizeParent=1;resizeParentMax=0;resizeLast=0;collapsible=1;marginBottom=0;whiteSpace=wrap;html=1;" parent="WIyWlLk6GJQsqaUBKTNV-1" vertex="1">
          <mxGeometry x="540" y="384" width="140" height="104" as="geometry" />
        </mxCell>
        <mxCell id="nbl_aplQU6VVSkMg5tAf-140" value="Открыто" style="text;strokeColor=none;fillColor=none;align=left;verticalAlign=top;spacingLeft=4;spacingRight=4;overflow=hidden;rotatable=0;points=[[0,0.5],[1,0.5]];portConstraint=eastwest;whiteSpace=wrap;html=1;" parent="nbl_aplQU6VVSkMg5tAf-139" vertex="1">
          <mxGeometry y="26" width="140" height="26" as="geometry" />
        </mxCell>
        <mxCell id="nbl_aplQU6VVSkMg5tAf-143" value="Закрыто" style="text;strokeColor=none;fillColor=none;align=left;verticalAlign=top;spacingLeft=4;spacingRight=4;overflow=hidden;rotatable=0;points=[[0,0.5],[1,0.5]];portConstraint=eastwest;whiteSpace=wrap;html=1;" parent="nbl_aplQU6VVSkMg5tAf-139" vertex="1">
          <mxGeometry y="52" width="140" height="26" as="geometry" />
        </mxCell>
        <mxCell id="nbl_aplQU6VVSkMg5tAf-142" value="На_проверке" style="text;strokeColor=none;fillColor=none;align=left;verticalAlign=top;spacingLeft=4;spacingRight=4;overflow=hidden;rotatable=0;points=[[0,0.5],[1,0.5]];portConstraint=eastwest;whiteSpace=wrap;html=1;" parent="nbl_aplQU6VVSkMg5tAf-139" vertex="1">
          <mxGeometry y="78" width="140" height="26" as="geometry" />
        </mxCell>
        <mxCell id="nbl_aplQU6VVSkMg5tAf-141" style="edgeStyle=orthogonalEdgeStyle;rounded=0;orthogonalLoop=1;jettySize=auto;html=1;entryX=1;entryY=0.25;entryDx=0;entryDy=0;endArrow=open;endFill=0;dashed=1;exitX=1;exitY=0.5;exitDx=0;exitDy=0;" parent="WIyWlLk6GJQsqaUBKTNV-1" source="zkfFHV4jXpPFQw0GAbJ--21" target="nbl_aplQU6VVSkMg5tAf-139" edge="1">
          <mxGeometry relative="1" as="geometry">
            <mxPoint x="710" y="220" as="sourcePoint" />
            <mxPoint x="170" y="499" as="targetPoint" />
            <Array as="points">
              <mxPoint x="800" y="315" />
              <mxPoint x="800" y="410" />
            </Array>
          </mxGeometry>
        </mxCell>
        <mxCell id="nbl_aplQU6VVSkMg5tAf-144" value="«enum»&lt;div&gt;Статус_профиля&lt;/div&gt;" style="swimlane;fontStyle=0;childLayout=stackLayout;horizontal=1;startSize=26;fillColor=none;horizontalStack=0;resizeParent=1;resizeParentMax=0;resizeLast=0;collapsible=1;marginBottom=0;whiteSpace=wrap;html=1;" parent="WIyWlLk6GJQsqaUBKTNV-1" vertex="1">
          <mxGeometry x="-430" y="368" width="140" height="78" as="geometry" />
        </mxCell>
        <mxCell id="nbl_aplQU6VVSkMg5tAf-145" value="Активен" style="text;strokeColor=none;fillColor=none;align=left;verticalAlign=top;spacingLeft=4;spacingRight=4;overflow=hidden;rotatable=0;points=[[0,0.5],[1,0.5]];portConstraint=eastwest;whiteSpace=wrap;html=1;" parent="nbl_aplQU6VVSkMg5tAf-144" vertex="1">
          <mxGeometry y="26" width="140" height="26" as="geometry" />
        </mxCell>
        <mxCell id="nbl_aplQU6VVSkMg5tAf-146" value="Заблокирован" style="text;strokeColor=none;fillColor=none;align=left;verticalAlign=top;spacingLeft=4;spacingRight=4;overflow=hidden;rotatable=0;points=[[0,0.5],[1,0.5]];portConstraint=eastwest;whiteSpace=wrap;html=1;" parent="nbl_aplQU6VVSkMg5tAf-144" vertex="1">
          <mxGeometry y="52" width="140" height="26" as="geometry" />
        </mxCell>
        <mxCell id="nbl_aplQU6VVSkMg5tAf-149" style="edgeStyle=orthogonalEdgeStyle;rounded=0;orthogonalLoop=1;jettySize=auto;html=1;entryX=1;entryY=0.5;entryDx=0;entryDy=0;endArrow=open;endFill=0;dashed=1;exitX=0;exitY=0.5;exitDx=0;exitDy=0;" parent="WIyWlLk6GJQsqaUBKTNV-1" source="nbl_aplQU6VVSkMg5tAf-102" target="nbl_aplQU6VVSkMg5tAf-145" edge="1">
          <mxGeometry relative="1" as="geometry">
            <mxPoint x="-300" y="30" as="sourcePoint" />
            <mxPoint x="-310" y="189" as="targetPoint" />
          </mxGeometry>
        </mxCell>
        <mxCell id="nbl_aplQU6VVSkMg5tAf-157" value="Контакт" style="swimlane;fontStyle=2;align=center;verticalAlign=top;childLayout=stackLayout;horizontal=1;startSize=26;horizontalStack=0;resizeParent=1;resizeLast=0;collapsible=1;marginBottom=0;rounded=0;shadow=0;strokeWidth=1;" parent="WIyWlLk6GJQsqaUBKTNV-1" vertex="1">
          <mxGeometry x="-590" y="82" width="160" height="178" as="geometry">
            <mxRectangle x="230" y="140" width="160" height="26" as="alternateBounds" />
          </mxGeometry>
        </mxCell>
        <mxCell id="nbl_aplQU6VVSkMg5tAf-158" value="ID: int" style="text;align=left;verticalAlign=top;spacingLeft=4;spacingRight=4;overflow=hidden;rotatable=0;points=[[0,0.5],[1,0.5]];portConstraint=eastwest;" parent="nbl_aplQU6VVSkMg5tAf-157" vertex="1">
          <mxGeometry y="26" width="160" height="30" as="geometry" />
        </mxCell>
        <mxCell id="nbl_aplQU6VVSkMg5tAf-159" value="ID_профиля: int" style="text;align=left;verticalAlign=top;spacingLeft=4;spacingRight=4;overflow=hidden;rotatable=0;points=[[0,0.5],[1,0.5]];portConstraint=eastwest;" parent="nbl_aplQU6VVSkMg5tAf-157" vertex="1">
          <mxGeometry y="56" width="160" height="30" as="geometry" />
        </mxCell>
        <mxCell id="nbl_aplQU6VVSkMg5tAf-160" value="Тип: Тип_контакта" style="text;align=left;verticalAlign=top;spacingLeft=4;spacingRight=4;overflow=hidden;rotatable=0;points=[[0,0.5],[1,0.5]];portConstraint=eastwest;" parent="nbl_aplQU6VVSkMg5tAf-157" vertex="1">
          <mxGeometry y="86" width="160" height="30" as="geometry" />
        </mxCell>
        <mxCell id="nbl_aplQU6VVSkMg5tAf-161" value="Контакт: string" style="text;align=left;verticalAlign=top;spacingLeft=4;spacingRight=4;overflow=hidden;rotatable=0;points=[[0,0.5],[1,0.5]];portConstraint=eastwest;" parent="nbl_aplQU6VVSkMg5tAf-157" vertex="1">
          <mxGeometry y="116" width="160" height="30" as="geometry" />
        </mxCell>
        <mxCell id="nbl_aplQU6VVSkMg5tAf-162" value="" style="line;html=1;strokeWidth=1;align=left;verticalAlign=middle;spacingTop=-1;spacingLeft=3;spacingRight=3;rotatable=0;labelPosition=right;points=[];portConstraint=eastwest;" parent="nbl_aplQU6VVSkMg5tAf-157" vertex="1">
          <mxGeometry y="146" width="160" height="6" as="geometry" />
        </mxCell>
        <mxCell id="3zSwLXolES_PX4SPe3zD-39" value="&amp;nbsp;" style="text;strokeColor=none;fillColor=none;align=left;verticalAlign=top;spacingLeft=4;spacingRight=4;overflow=hidden;rotatable=0;points=[[0,0.5],[1,0.5]];portConstraint=eastwest;whiteSpace=wrap;html=1;" parent="nbl_aplQU6VVSkMg5tAf-157" vertex="1">
          <mxGeometry y="152" width="160" height="26" as="geometry" />
        </mxCell>
        <mxCell id="nbl_aplQU6VVSkMg5tAf-168" style="rounded=0;orthogonalLoop=1;jettySize=auto;html=1;endArrow=diamondThin;endFill=1;exitX=0;exitY=0.5;exitDx=0;exitDy=0;startArrow=none;startFill=0;entryX=1.01;entryY=0.176;entryDx=0;entryDy=0;entryPerimeter=0;" parent="WIyWlLk6GJQsqaUBKTNV-1" source="nbl_aplQU6VVSkMg5tAf-55" target="nbl_aplQU6VVSkMg5tAf-160" edge="1">
          <mxGeometry relative="1" as="geometry">
            <mxPoint x="220" y="173" as="sourcePoint" />
            <mxPoint x="-350" y="160" as="targetPoint" />
          </mxGeometry>
        </mxCell>
        <mxCell id="nbl_aplQU6VVSkMg5tAf-169" value="0..*" style="edgeLabel;html=1;align=center;verticalAlign=middle;resizable=0;points=[];" parent="nbl_aplQU6VVSkMg5tAf-168" vertex="1" connectable="0">
          <mxGeometry x="0.6733" relative="1" as="geometry">
            <mxPoint x="-11" y="-15" as="offset" />
          </mxGeometry>
        </mxCell>
        <mxCell id="nbl_aplQU6VVSkMg5tAf-170" value="1" style="edgeLabel;html=1;align=center;verticalAlign=middle;resizable=0;points=[];" parent="nbl_aplQU6VVSkMg5tAf-168" vertex="1" connectable="0">
          <mxGeometry x="-0.7524" y="-1" relative="1" as="geometry">
            <mxPoint x="6" y="-9" as="offset" />
          </mxGeometry>
        </mxCell>
        <mxCell id="nbl_aplQU6VVSkMg5tAf-171" value="Имеет" style="edgeLabel;html=1;align=center;verticalAlign=middle;resizable=0;points=[];" parent="nbl_aplQU6VVSkMg5tAf-168" vertex="1" connectable="0">
          <mxGeometry x="0.2743" y="-3" relative="1" as="geometry">
            <mxPoint x="35" y="-8" as="offset" />
          </mxGeometry>
        </mxCell>
        <mxCell id="nbl_aplQU6VVSkMg5tAf-172" value="«enum»&lt;div&gt;Тип_контакта&lt;/div&gt;" style="swimlane;fontStyle=0;childLayout=stackLayout;horizontal=1;startSize=26;fillColor=none;horizontalStack=0;resizeParent=1;resizeParentMax=0;resizeLast=0;collapsible=1;marginBottom=0;whiteSpace=wrap;html=1;" parent="WIyWlLk6GJQsqaUBKTNV-1" vertex="1">
          <mxGeometry x="-810" y="95" width="140" height="156" as="geometry" />
        </mxCell>
        <mxCell id="nbl_aplQU6VVSkMg5tAf-173" value="Email" style="text;strokeColor=none;fillColor=none;align=left;verticalAlign=top;spacingLeft=4;spacingRight=4;overflow=hidden;rotatable=0;points=[[0,0.5],[1,0.5]];portConstraint=eastwest;whiteSpace=wrap;html=1;" parent="nbl_aplQU6VVSkMg5tAf-172" vertex="1">
          <mxGeometry y="26" width="140" height="26" as="geometry" />
        </mxCell>
        <mxCell id="nbl_aplQU6VVSkMg5tAf-174" value="Телефон" style="text;strokeColor=none;fillColor=none;align=left;verticalAlign=top;spacingLeft=4;spacingRight=4;overflow=hidden;rotatable=0;points=[[0,0.5],[1,0.5]];portConstraint=eastwest;whiteSpace=wrap;html=1;" parent="nbl_aplQU6VVSkMg5tAf-172" vertex="1">
          <mxGeometry y="52" width="140" height="26" as="geometry" />
        </mxCell>
        <mxCell id="nbl_aplQU6VVSkMg5tAf-178" value="VK" style="text;strokeColor=none;fillColor=none;align=left;verticalAlign=top;spacingLeft=4;spacingRight=4;overflow=hidden;rotatable=0;points=[[0,0.5],[1,0.5]];portConstraint=eastwest;whiteSpace=wrap;html=1;" parent="nbl_aplQU6VVSkMg5tAf-172" vertex="1">
          <mxGeometry y="78" width="140" height="26" as="geometry" />
        </mxCell>
        <mxCell id="nbl_aplQU6VVSkMg5tAf-179" value="WhatsApp" style="text;strokeColor=none;fillColor=none;align=left;verticalAlign=top;spacingLeft=4;spacingRight=4;overflow=hidden;rotatable=0;points=[[0,0.5],[1,0.5]];portConstraint=eastwest;whiteSpace=wrap;html=1;" parent="nbl_aplQU6VVSkMg5tAf-172" vertex="1">
          <mxGeometry y="104" width="140" height="26" as="geometry" />
        </mxCell>
        <mxCell id="nbl_aplQU6VVSkMg5tAf-181" value="Telegram" style="text;strokeColor=none;fillColor=none;align=left;verticalAlign=top;spacingLeft=4;spacingRight=4;overflow=hidden;rotatable=0;points=[[0,0.5],[1,0.5]];portConstraint=eastwest;whiteSpace=wrap;html=1;" parent="nbl_aplQU6VVSkMg5tAf-172" vertex="1">
          <mxGeometry y="130" width="140" height="26" as="geometry" />
        </mxCell>
        <mxCell id="nbl_aplQU6VVSkMg5tAf-175" style="rounded=0;orthogonalLoop=1;jettySize=auto;html=1;entryX=1.006;entryY=0.308;entryDx=0;entryDy=0;endArrow=open;endFill=0;dashed=1;exitX=0;exitY=0.5;exitDx=0;exitDy=0;entryPerimeter=0;" parent="WIyWlLk6GJQsqaUBKTNV-1" source="nbl_aplQU6VVSkMg5tAf-160" target="nbl_aplQU6VVSkMg5tAf-178" edge="1">
          <mxGeometry relative="1" as="geometry">
            <mxPoint x="-190" y="333" as="sourcePoint" />
            <mxPoint x="-280" y="379" as="targetPoint" />
          </mxGeometry>
        </mxCell>
        <mxCell id="SShUdO7rUhPXR5gyuIkV-0" value="" style="endArrow=none;shadow=0;strokeWidth=1;rounded=0;endFill=0;elbow=horizontal;exitX=1.004;exitY=0.767;exitDx=0;exitDy=0;exitPerimeter=0;entryX=-0.004;entryY=0.453;entryDx=0;entryDy=0;entryPerimeter=0;" parent="WIyWlLk6GJQsqaUBKTNV-1" source="nbl_aplQU6VVSkMg5tAf-88" target="zkfFHV4jXpPFQw0GAbJ--22" edge="1">
          <mxGeometry x="0.5" y="41" relative="1" as="geometry">
            <mxPoint x="370" y="218" as="sourcePoint" />
            <mxPoint x="510" y="199" as="targetPoint" />
            <mxPoint x="-40" y="32" as="offset" />
          </mxGeometry>
        </mxCell>
        <mxCell id="SShUdO7rUhPXR5gyuIkV-1" value="1" style="edgeLabel;html=1;align=center;verticalAlign=middle;resizable=0;points=[];" parent="SShUdO7rUhPXR5gyuIkV-0" vertex="1" connectable="0">
          <mxGeometry x="-0.4969" y="-1" relative="1" as="geometry">
            <mxPoint x="-25" y="-11" as="offset" />
          </mxGeometry>
        </mxCell>
        <mxCell id="SShUdO7rUhPXR5gyuIkV-2" value="0..*" style="edgeLabel;html=1;align=center;verticalAlign=middle;resizable=0;points=[];" parent="SShUdO7rUhPXR5gyuIkV-0" vertex="1" connectable="0">
          <mxGeometry x="0.8915" y="3" relative="1" as="geometry">
            <mxPoint x="-13" y="-8" as="offset" />
          </mxGeometry>
        </mxCell>
        <mxCell id="SShUdO7rUhPXR5gyuIkV-3" value="Редактирует" style="edgeLabel;html=1;align=center;verticalAlign=middle;resizable=0;points=[];" parent="SShUdO7rUhPXR5gyuIkV-0" vertex="1" connectable="0">
          <mxGeometry x="-0.2543" y="2" relative="1" as="geometry">
            <mxPoint x="17" y="-9" as="offset" />
          </mxGeometry>
        </mxCell>
        <mxCell id="SShUdO7rUhPXR5gyuIkV-9" value="" style="endArrow=none;shadow=0;strokeWidth=1;rounded=0;endFill=0;elbow=horizontal;exitX=0;exitY=0.5;exitDx=0;exitDy=0;entryX=1.008;entryY=0.181;entryDx=0;entryDy=0;entryPerimeter=0;" parent="WIyWlLk6GJQsqaUBKTNV-1" source="nbl_aplQU6VVSkMg5tAf-88" target="nbl_aplQU6VVSkMg5tAf-83" edge="1">
          <mxGeometry x="0.5" y="41" relative="1" as="geometry">
            <mxPoint x="380" y="233" as="sourcePoint" />
            <mxPoint x="520" y="217" as="targetPoint" />
            <mxPoint x="-40" y="32" as="offset" />
          </mxGeometry>
        </mxCell>
        <mxCell id="SShUdO7rUhPXR5gyuIkV-10" value="1" style="edgeLabel;html=1;align=center;verticalAlign=middle;resizable=0;points=[];" parent="SShUdO7rUhPXR5gyuIkV-9" vertex="1" connectable="0">
          <mxGeometry x="-0.4969" y="-1" relative="1" as="geometry">
            <mxPoint x="53" y="-11" as="offset" />
          </mxGeometry>
        </mxCell>
        <mxCell id="SShUdO7rUhPXR5gyuIkV-11" value="1" style="edgeLabel;html=1;align=center;verticalAlign=middle;resizable=0;points=[];" parent="SShUdO7rUhPXR5gyuIkV-9" vertex="1" connectable="0">
          <mxGeometry x="0.8915" y="3" relative="1" as="geometry">
            <mxPoint x="-5" y="-15" as="offset" />
          </mxGeometry>
        </mxCell>
        <mxCell id="SShUdO7rUhPXR5gyuIkV-12" value="Редактирует" style="edgeLabel;html=1;align=center;verticalAlign=middle;resizable=0;points=[];" parent="SShUdO7rUhPXR5gyuIkV-9" vertex="1" connectable="0">
          <mxGeometry x="-0.2543" y="2" relative="1" as="geometry">
            <mxPoint x="-17" y="-15" as="offset" />
          </mxGeometry>
        </mxCell>
        <mxCell id="SShUdO7rUhPXR5gyuIkV-13" style="rounded=0;orthogonalLoop=1;jettySize=auto;html=1;endArrow=diamondThin;endFill=1;exitX=0.998;exitY=0.416;exitDx=0;exitDy=0;exitPerimeter=0;entryX=0.002;entryY=0.849;entryDx=0;entryDy=0;entryPerimeter=0;" parent="WIyWlLk6GJQsqaUBKTNV-1" source="zkfFHV4jXpPFQw0GAbJ--18" target="zkfFHV4jXpPFQw0GAbJ--19" edge="1">
          <mxGeometry relative="1" as="geometry">
            <mxPoint x="380" y="130" as="sourcePoint" />
            <mxPoint x="490" y="131" as="targetPoint" />
          </mxGeometry>
        </mxCell>
        <mxCell id="SShUdO7rUhPXR5gyuIkV-14" value="1" style="edgeLabel;html=1;align=center;verticalAlign=middle;resizable=0;points=[];" parent="SShUdO7rUhPXR5gyuIkV-13" vertex="1" connectable="0">
          <mxGeometry x="-0.6684" y="4" relative="1" as="geometry">
            <mxPoint x="-13" y="-6" as="offset" />
          </mxGeometry>
        </mxCell>
        <mxCell id="SShUdO7rUhPXR5gyuIkV-15" value="0..*" style="edgeLabel;html=1;align=center;verticalAlign=middle;resizable=0;points=[];" parent="SShUdO7rUhPXR5gyuIkV-13" vertex="1" connectable="0">
          <mxGeometry x="0.665" y="9" relative="1" as="geometry">
            <mxPoint x="4" y="-1" as="offset" />
          </mxGeometry>
        </mxCell>
        <mxCell id="SShUdO7rUhPXR5gyuIkV-16" value="Имеет" style="edgeLabel;html=1;align=center;verticalAlign=middle;resizable=0;points=[];" parent="SShUdO7rUhPXR5gyuIkV-13" vertex="1" connectable="0">
          <mxGeometry x="-0.0908" y="5" relative="1" as="geometry">
            <mxPoint x="7" y="-5" as="offset" />
          </mxGeometry>
        </mxCell>
        <mxCell id="3zSwLXolES_PX4SPe3zD-5" value="Документ" style="swimlane;fontStyle=0;align=center;verticalAlign=top;childLayout=stackLayout;horizontal=1;startSize=26;horizontalStack=0;resizeParent=1;resizeLast=0;collapsible=1;marginBottom=0;rounded=0;shadow=0;strokeWidth=1;" parent="WIyWlLk6GJQsqaUBKTNV-1" vertex="1">
          <mxGeometry x="60" y="500" width="160" height="252" as="geometry">
            <mxRectangle x="550" y="140" width="160" height="26" as="alternateBounds" />
          </mxGeometry>
        </mxCell>
        <mxCell id="3zSwLXolES_PX4SPe3zD-6" value="ID: int" style="text;align=left;verticalAlign=top;spacingLeft=4;spacingRight=4;overflow=hidden;rotatable=0;points=[[0,0.5],[1,0.5]];portConstraint=eastwest;rounded=0;shadow=0;html=0;" parent="3zSwLXolES_PX4SPe3zD-5" vertex="1">
          <mxGeometry y="26" width="160" height="30" as="geometry" />
        </mxCell>
        <mxCell id="3zSwLXolES_PX4SPe3zD-7" value="Тип: string" style="text;align=left;verticalAlign=top;spacingLeft=4;spacingRight=4;overflow=hidden;rotatable=0;points=[[0,0.5],[1,0.5]];portConstraint=eastwest;rounded=0;shadow=0;html=0;" parent="3zSwLXolES_PX4SPe3zD-5" vertex="1">
          <mxGeometry y="56" width="160" height="30" as="geometry" />
        </mxCell>
        <mxCell id="3zSwLXolES_PX4SPe3zD-22" value="Дата_выдачи: Date" style="text;align=left;verticalAlign=top;spacingLeft=4;spacingRight=4;overflow=hidden;rotatable=0;points=[[0,0.5],[1,0.5]];portConstraint=eastwest;rounded=0;shadow=0;html=0;" parent="3zSwLXolES_PX4SPe3zD-5" vertex="1">
          <mxGeometry y="86" width="160" height="30" as="geometry" />
        </mxCell>
        <mxCell id="3zSwLXolES_PX4SPe3zD-23" value="Дата_окончания: Date?" style="text;align=left;verticalAlign=top;spacingLeft=4;spacingRight=4;overflow=hidden;rotatable=0;points=[[0,0.5],[1,0.5]];portConstraint=eastwest;rounded=0;shadow=0;html=0;" parent="3zSwLXolES_PX4SPe3zD-5" vertex="1">
          <mxGeometry y="116" width="160" height="30" as="geometry" />
        </mxCell>
        <mxCell id="3zSwLXolES_PX4SPe3zD-24" value="Описание: string" style="text;align=left;verticalAlign=top;spacingLeft=4;spacingRight=4;overflow=hidden;rotatable=0;points=[[0,0.5],[1,0.5]];portConstraint=eastwest;rounded=0;shadow=0;html=0;" parent="3zSwLXolES_PX4SPe3zD-5" vertex="1">
          <mxGeometry y="146" width="160" height="30" as="geometry" />
        </mxCell>
        <mxCell id="3zSwLXolES_PX4SPe3zD-25" value="Фото: string" style="text;align=left;verticalAlign=top;spacingLeft=4;spacingRight=4;overflow=hidden;rotatable=0;points=[[0,0.5],[1,0.5]];portConstraint=eastwest;rounded=0;shadow=0;html=0;" parent="3zSwLXolES_PX4SPe3zD-5" vertex="1">
          <mxGeometry y="176" width="160" height="30" as="geometry" />
        </mxCell>
        <mxCell id="3zSwLXolES_PX4SPe3zD-13" value="" style="line;html=1;strokeWidth=1;align=left;verticalAlign=middle;spacingTop=-1;spacingLeft=3;spacingRight=3;rotatable=0;labelPosition=right;points=[];portConstraint=eastwest;" parent="3zSwLXolES_PX4SPe3zD-5" vertex="1">
          <mxGeometry y="206" width="160" height="16" as="geometry" />
        </mxCell>
        <mxCell id="3zSwLXolES_PX4SPe3zD-34" value="&amp;nbsp;" style="text;strokeColor=none;fillColor=none;align=left;verticalAlign=top;spacingLeft=4;spacingRight=4;overflow=hidden;rotatable=0;points=[[0,0.5],[1,0.5]];portConstraint=eastwest;whiteSpace=wrap;html=1;" parent="3zSwLXolES_PX4SPe3zD-5" vertex="1">
          <mxGeometry y="222" width="160" height="26" as="geometry" />
        </mxCell>
        <mxCell id="3zSwLXolES_PX4SPe3zD-14" style="rounded=0;orthogonalLoop=1;jettySize=auto;html=1;endArrow=diamondThin;endFill=1;exitX=1;exitY=0.5;exitDx=0;exitDy=0;entryX=0;entryY=0.5;entryDx=0;entryDy=0;" parent="WIyWlLk6GJQsqaUBKTNV-1" source="nbl_aplQU6VVSkMg5tAf-79" target="3zSwLXolES_PX4SPe3zD-6" edge="1">
          <mxGeometry relative="1" as="geometry">
            <mxPoint x="-170" y="569" as="sourcePoint" />
            <mxPoint x="-90" y="568" as="targetPoint" />
          </mxGeometry>
        </mxCell>
        <mxCell id="3zSwLXolES_PX4SPe3zD-15" value="1" style="edgeLabel;html=1;align=center;verticalAlign=middle;resizable=0;points=[];" parent="3zSwLXolES_PX4SPe3zD-14" vertex="1" connectable="0">
          <mxGeometry x="-0.6684" y="4" relative="1" as="geometry">
            <mxPoint x="-9" y="-7" as="offset" />
          </mxGeometry>
        </mxCell>
        <mxCell id="3zSwLXolES_PX4SPe3zD-16" value="0..*" style="edgeLabel;html=1;align=center;verticalAlign=middle;resizable=0;points=[];" parent="3zSwLXolES_PX4SPe3zD-14" vertex="1" connectable="0">
          <mxGeometry x="0.665" y="9" relative="1" as="geometry">
            <mxPoint y="-1" as="offset" />
          </mxGeometry>
        </mxCell>
        <mxCell id="3zSwLXolES_PX4SPe3zD-17" value="Имеет" style="edgeLabel;html=1;align=center;verticalAlign=middle;resizable=0;points=[];" parent="3zSwLXolES_PX4SPe3zD-14" vertex="1" connectable="0">
          <mxGeometry x="-0.0908" y="5" relative="1" as="geometry">
            <mxPoint x="-7" y="-6" as="offset" />
          </mxGeometry>
        </mxCell>
        <mxCell id="3zSwLXolES_PX4SPe3zD-18" value="«enum»&lt;div&gt;Пол&lt;/div&gt;" style="swimlane;fontStyle=0;childLayout=stackLayout;horizontal=1;startSize=26;fillColor=none;horizontalStack=0;resizeParent=1;resizeParentMax=0;resizeLast=0;collapsible=1;marginBottom=0;whiteSpace=wrap;html=1;" parent="WIyWlLk6GJQsqaUBKTNV-1" vertex="1">
          <mxGeometry x="-430" y="274" width="140" height="78" as="geometry" />
        </mxCell>
        <mxCell id="3zSwLXolES_PX4SPe3zD-19" value="Мужской" style="text;strokeColor=none;fillColor=none;align=left;verticalAlign=top;spacingLeft=4;spacingRight=4;overflow=hidden;rotatable=0;points=[[0,0.5],[1,0.5]];portConstraint=eastwest;whiteSpace=wrap;html=1;" parent="3zSwLXolES_PX4SPe3zD-18" vertex="1">
          <mxGeometry y="26" width="140" height="26" as="geometry" />
        </mxCell>
        <mxCell id="3zSwLXolES_PX4SPe3zD-20" value="Женский" style="text;strokeColor=none;fillColor=none;align=left;verticalAlign=top;spacingLeft=4;spacingRight=4;overflow=hidden;rotatable=0;points=[[0,0.5],[1,0.5]];portConstraint=eastwest;whiteSpace=wrap;html=1;" parent="3zSwLXolES_PX4SPe3zD-18" vertex="1">
          <mxGeometry y="52" width="140" height="26" as="geometry" />
        </mxCell>
        <mxCell id="3zSwLXolES_PX4SPe3zD-21" style="rounded=0;orthogonalLoop=1;jettySize=auto;html=1;entryX=1;entryY=0.5;entryDx=0;entryDy=0;endArrow=open;endFill=0;dashed=1;exitX=0;exitY=0.5;exitDx=0;exitDy=0;edgeStyle=orthogonalEdgeStyle;" parent="WIyWlLk6GJQsqaUBKTNV-1" source="nbl_aplQU6VVSkMg5tAf-84" target="3zSwLXolES_PX4SPe3zD-19" edge="1">
          <mxGeometry relative="1" as="geometry">
            <mxPoint x="-190" y="333" as="sourcePoint" />
            <mxPoint x="-280" y="379" as="targetPoint" />
          </mxGeometry>
        </mxCell>
        <mxCell id="3zSwLXolES_PX4SPe3zD-31" value="&amp;nbsp;" style="text;strokeColor=none;fillColor=none;align=left;verticalAlign=top;spacingLeft=4;spacingRight=4;overflow=hidden;rotatable=0;points=[[0,0.5],[1,0.5]];portConstraint=eastwest;whiteSpace=wrap;html=1;" parent="WIyWlLk6GJQsqaUBKTNV-1" vertex="1">
          <mxGeometry x="220" y="420" width="160" height="26" as="geometry" />
        </mxCell>
        <mxCell id="p3t6UOwjwPIQ7AUzh01Z-36" value="Платежная_система" style="swimlane;fontStyle=0;align=center;verticalAlign=top;childLayout=stackLayout;horizontal=1;startSize=26;horizontalStack=0;resizeParent=1;resizeLast=0;collapsible=1;marginBottom=0;rounded=0;shadow=0;strokeWidth=1;" parent="WIyWlLk6GJQsqaUBKTNV-1" vertex="1">
          <mxGeometry x="345" y="-440" width="160" height="100" as="geometry">
            <mxRectangle x="550" y="140" width="160" height="26" as="alternateBounds" />
          </mxGeometry>
        </mxCell>
        <mxCell id="p3t6UOwjwPIQ7AUzh01Z-37" value="&#xa;" style="text;align=left;verticalAlign=top;spacingLeft=4;spacingRight=4;overflow=hidden;rotatable=0;points=[[0,0.5],[1,0.5]];portConstraint=eastwest;rounded=0;shadow=0;html=0;" parent="p3t6UOwjwPIQ7AUzh01Z-36" vertex="1">
          <mxGeometry y="26" width="160" height="30" as="geometry" />
        </mxCell>
        <mxCell id="p3t6UOwjwPIQ7AUzh01Z-38" value="" style="line;html=1;strokeWidth=1;align=left;verticalAlign=middle;spacingTop=-1;spacingLeft=3;spacingRight=3;rotatable=0;labelPosition=right;points=[];portConstraint=eastwest;" parent="p3t6UOwjwPIQ7AUzh01Z-36" vertex="1">
          <mxGeometry y="56" width="160" height="16" as="geometry" />
        </mxCell>
        <mxCell id="p3t6UOwjwPIQ7AUzh01Z-39" value="Оплатить()" style="text;strokeColor=none;fillColor=none;align=left;verticalAlign=top;spacingLeft=4;spacingRight=4;overflow=hidden;rotatable=0;points=[[0,0.5],[1,0.5]];portConstraint=eastwest;whiteSpace=wrap;html=1;" parent="p3t6UOwjwPIQ7AUzh01Z-36" vertex="1">
          <mxGeometry y="72" width="160" height="28" as="geometry" />
        </mxCell>
        <mxCell id="p3t6UOwjwPIQ7AUzh01Z-40" style="rounded=0;orthogonalLoop=1;jettySize=auto;html=1;endArrow=open;endFill=0;dashed=1;dashPattern=8 8;entryX=0.51;entryY=1.051;entryDx=0;entryDy=0;entryPerimeter=0;" parent="WIyWlLk6GJQsqaUBKTNV-1" target="p3t6UOwjwPIQ7AUzh01Z-39" edge="1">
          <mxGeometry relative="1" as="geometry">
            <mxPoint x="427" y="-270" as="sourcePoint" />
            <mxPoint x="420" y="-320" as="targetPoint" />
          </mxGeometry>
        </mxCell>
        <mxCell id="n7qUD9LOzO8aCclSSMYk-1" value="" style="swimlane;startSize=0;" vertex="1" parent="WIyWlLk6GJQsqaUBKTNV-1">
          <mxGeometry x="-1050" y="-920" width="2070" height="1850" as="geometry" />
        </mxCell>
      </root>
    </mxGraphModel>
  </diagram>
</mxfile>
